<svg t="1661685602439" class="icon" viewBox="0 0 1024 1024" version="1.1" xmlns="http://www.w3.org/2000/svg" p-id="6293" width="200" height="200"><path d="M290.4064 890.88h-131.072c-5.7344 0-10.24-4.5056-10.24-10.24V143.36c0-5.7344 4.5056-10.24 10.24-10.24h532.48c5.7344 0 10.24 4.5056 10.24 10.24v307.2c0 16.7936 13.9264 30.72 30.72 30.72s30.72-13.9264 30.72-30.72V143.36c0-39.3216-32.3584-71.68-71.68-71.68h-532.48c-39.3216 0-71.68 32.3584-71.68 71.68v737.28c0 39.3216 32.3584 71.68 71.68 71.68h131.072c16.7936 0 30.72-13.9264 30.72-30.72s-13.9264-30.72-30.72-30.72z" fill="#231815" p-id="6294"></path><path d="M282.2144 276.48c-16.7936 0-30.72 13.9264-30.72 30.72s13.9264 30.72 30.72 30.72h245.76c16.7936 0 30.72-13.9264 30.72-30.72s-13.9264-30.72-30.72-30.72h-245.76zM905.6256 535.3472H424.3456c-16.7936 0-30.72 13.9264-30.72 30.72V921.6c0 16.7936 13.9264 30.72 30.72 30.72h481.28c16.7936 0 30.72-13.9264 30.72-30.72v-355.5328c0-17.2032-13.5168-30.72-30.72-30.72z m-96.256 61.44l-150.7328 108.9536-142.5408-108.9536h293.2736z m-354.304 294.0928v-263.7824l184.32 140.9024c5.3248 4.096 11.8784 6.144 18.8416 6.144 6.144 0 12.6976-2.048 18.0224-5.7344l199.0656-143.7696v265.8304H455.0656z" fill="#231815" p-id="6295"></path></svg>