<svg t="1661685283974" class="icon" viewBox="0 0 1024 1024" version="1.1" xmlns="http://www.w3.org/2000/svg" p-id="38234" width="200" height="200"><path d="M960.128 597.12c20.992 0 38.016-16.64 38.016-37.248V315.52c0-82.304-68.096-149.248-151.936-149.248H177.792c-83.712 0-151.936 66.944-151.936 149.248v430.848c0 82.304 68.096 149.248 151.936 149.248h668.416c83.712 0 151.936-66.944 151.936-149.248 0-20.608-17.024-37.248-38.016-37.248s-38.016 16.64-38.016 37.248c0 41.088-34.048 74.624-75.904 74.624H177.792c-41.856 0-75.904-33.408-75.904-74.624V323.328L431.872 524.8c24.704 15.104 52.48 22.656 80.256 22.656 27.776 0 55.424-7.552 80.256-22.656l329.984-201.472v236.416c-0.128 20.608 16.896 37.376 37.76 37.376zM552.064 461.568c-24.704 15.104-55.424 15.104-80.256 0L133.504 254.848c12.928-9.088 28.416-14.08 44.288-13.952h668.416c15.872 0 31.36 4.864 44.288 13.952L552.064 461.568z m0 0" p-id="38235"></path></svg>