<svg t="1661679701090" class="icon" viewBox="0 0 1024 1024" version="1.1" xmlns="http://www.w3.org/2000/svg" p-id="16038" width="200" height="200"><path d="M419.919165 1024a26.827966 26.827966 0 0 1-23.715922-14.218822l-122.335523-229.915665L23.455489 677.060749a26.827966 26.827966 0 0 1-4.292474-47.270876L975.633645 4.376339a26.827966 26.827966 0 0 1 41.154099 26.827965L856.195542 983.436116a26.827966 26.827966 0 0 1-36.593345 20.335598L502.066396 873.602425l-57.680126 134.139828a26.827966 26.827966 0 0 1-23.554954 16.096779z m68.089377-212.04824a27.364525 27.364525 0 0 1 10.194627 1.985269l310.506874 127.486493 144.871014-858.4949L91.008307 646.798803l212.155552 87.083577a26.827966 26.827966 0 0 1 13.521294 12.233552l100.658527 189.083502 45.983133-107.043583a26.827966 26.827966 0 0 1 24.681729-16.204091z" p-id="16039"></path><path d="M292.808264 772.139059a13.306671 13.306671 0 0 1-9.22882-3.702259 13.467639 13.467639 0 0 1-0.482904-18.9942l697.527106-731.813246a13.413983 13.413983 0 0 1 19.423448 18.45764l-697.527106 731.866902a13.306671 13.306671 0 0 1-9.711724 4.185163z" p-id="16040"></path><path d="M472.555634 853.159515a13.413983 13.413983 0 0 1-11.321402-20.603878l517.779737-812.887358a13.413983 13.413983 0 0 1 22.642803 14.37979l-517.779737 812.887358A13.467639 13.467639 0 0 1 472.555634 853.159515z" p-id="16041"></path></svg>